<svg width="103" height="24" viewBox="0 0 103 24" fill="none" xmlns="http://www.w3.org/2000/svg">
<path d="M5.76 4.94C3.006 4.94 1.332 6.56 1.332 8.468C1.332 10.286 2.484 11.258 5.688 11.816C8.19 12.248 8.964 12.842 8.964 13.868C8.964 15.146 7.74 15.83 5.904 15.83C3.96 15.83 2.736 14.966 2.106 13.598L0.864 14.606C1.692 16.082 3.348 17.18 5.868 17.18C8.64 17.18 10.458 15.83 10.458 13.796C10.458 11.96 9.324 10.952 6.138 10.412C3.636 9.98 2.844 9.422 2.844 8.306C2.844 7.172 3.888 6.29 5.778 6.29C7.524 6.29 8.388 6.902 9.108 8.468L10.35 7.46C9.432 5.804 7.938 4.94 5.76 4.94ZM20.9273 12.032C20.9273 9.71 19.5053 7.82 16.8953 7.82C14.1772 7.82 12.6473 9.584 12.6473 12.5C12.6473 15.416 14.2853 17.18 17.0033 17.18C18.9473 17.18 20.0633 16.442 20.7473 15.218L19.5413 14.588C19.2173 15.452 18.3173 15.92 17.0033 15.92C15.3473 15.92 14.2493 14.858 14.0693 13.04H20.8553C20.8913 12.788 20.9273 12.446 20.9273 12.032ZM16.8953 9.08C18.4253 9.08 19.3433 10.106 19.5413 11.762H14.0873C14.3033 10.07 15.2933 9.08 16.8953 9.08ZM31.3862 12.032C31.3862 9.71 29.9642 7.82 27.3542 7.82C24.6362 7.82 23.1062 9.584 23.1062 12.5C23.1062 15.416 24.7442 17.18 27.4622 17.18C29.4062 17.18 30.5222 16.442 31.2062 15.218L30.0002 14.588C29.6762 15.452 28.7762 15.92 27.4622 15.92C25.8062 15.92 24.7082 14.858 24.5282 13.04H31.3142C31.3502 12.788 31.3862 12.446 31.3862 12.032ZM27.3542 9.08C28.8842 9.08 29.8022 10.106 30.0002 11.762H24.5462C24.7622 10.07 25.7522 9.08 27.3542 9.08ZM50.716 7.82C49.582 7.82 48.142 8.36 47.584 9.584C46.99 8.378 45.748 7.82 44.488 7.82C43.372 7.82 42.256 8.306 41.608 9.404L41.518 8H40.258V17H41.698V12.194C41.698 9.962 43.174 9.08 44.362 9.08C45.55 9.08 46.486 9.746 46.486 11.384V17H47.926V12.068C47.926 10.142 49.186 9.08 50.59 9.08C51.778 9.08 52.714 9.746 52.714 11.384V17H54.154V11.24C54.154 8.864 52.444 7.82 50.716 7.82ZM61.2122 7.82C58.4942 7.82 56.8562 9.584 56.8562 12.5C56.8562 15.416 58.4942 17.18 61.2122 17.18C63.9302 17.18 65.5682 15.416 65.5682 12.5C65.5682 9.584 63.9302 7.82 61.2122 7.82ZM61.2122 9.062C63.0302 9.062 64.1282 10.358 64.1282 12.5C64.1282 14.642 63.0302 15.938 61.2122 15.938C59.3942 15.938 58.2962 14.642 58.2962 12.5C58.2962 10.358 59.3942 9.062 61.2122 9.062ZM72.6134 7.82C71.2094 7.82 70.2374 8.378 69.7334 9.476L69.5354 8H68.3654V17H69.8054V12.14C69.8054 10.124 71.1014 9.17 72.1814 9.17C72.6494 9.17 73.0454 9.26 73.3154 9.404L73.6034 8C73.3334 7.856 72.9194 7.82 72.6134 7.82ZM83.1538 12.032C83.1538 9.71 81.7318 7.82 79.1218 7.82C76.4038 7.82 74.8738 9.584 74.8738 12.5C74.8738 15.416 76.5118 17.18 79.2298 17.18C81.1738 17.18 82.2898 16.442 82.9738 15.218L81.7678 14.588C81.4438 15.452 80.5438 15.92 79.2298 15.92C77.5738 15.92 76.4758 14.858 76.2958 13.04H83.0818C83.1178 12.788 83.1538 12.446 83.1538 12.032ZM79.1218 9.08C80.6518 9.08 81.5698 10.106 81.7678 11.762H76.3138C76.5298 10.07 77.5198 9.08 79.1218 9.08Z" fill="white"/>
<path d="M100.664 16.296C100.668 15.2495 100.668 14.2028 100.668 13.1564C100.668 12.5168 100.668 11.8773 100.669 11.2381L100.669 10.8753L100.413 11.1318L94.8549 16.6894L94.9609 16.7955L94.8549 16.6894C94.64 16.9042 94.2345 16.904 94.0165 16.686L93.3139 15.9834C93.3139 15.9834 93.3139 15.9834 93.3139 15.9834C93.0961 15.7654 93.0958 15.3601 93.3106 15.145C93.3106 15.145 93.3106 15.145 93.3106 15.145L98.8684 9.58744L99.1244 9.33142L98.7623 9.33138C98.2496 9.33132 97.702 9.33179 97.134 9.33227C96.0299 9.33322 94.8491 9.33423 93.6986 9.33157C93.6999 8.9827 93.7009 8.6612 93.7019 8.34019C93.703 7.95888 93.7042 7.57825 93.7059 7.15322C95.8004 7.15945 97.881 7.15651 100.096 7.15339C100.989 7.15213 101.903 7.15084 102.849 7.15011C102.842 8.9923 102.844 10.8194 102.846 12.7365C102.847 13.8826 102.848 15.0608 102.847 16.2937C102.562 16.2945 102.253 16.2944 101.935 16.2943C101.517 16.2942 101.082 16.2941 100.664 16.296Z" fill="white" stroke="white" stroke-width="0.3"/>
<line x1="4.37114e-08" y1="23.5" x2="103" y2="23.5" stroke="white"/>
<rect x="0.5" y="0.5" width="102" height="23" stroke="white"/>
</svg>
