<svg width="181" height="181" viewBox="0 0 181 181" fill="none" xmlns="http://www.w3.org/2000/svg">
<circle cx="90.5" cy="90.5" r="89.5" stroke="#F07E15" stroke-width="2"/>
<path d="M63.32 82.58C59.342 82.58 56.924 84.92 56.924 87.676C56.924 90.302 58.588 91.706 63.216 92.512C66.83 93.136 67.948 93.994 67.948 95.476C67.948 97.322 66.18 98.31 63.528 98.31C60.72 98.31 58.952 97.062 58.042 95.086L56.248 96.542C57.444 98.674 59.836 100.26 63.476 100.26C67.48 100.26 70.106 98.31 70.106 95.372C70.106 92.72 68.468 91.264 63.866 90.484C60.252 89.86 59.108 89.054 59.108 87.442C59.108 85.804 60.616 84.53 63.346 84.53C65.868 84.53 67.116 85.414 68.156 87.676L69.95 86.22C68.624 83.828 66.466 82.58 63.32 82.58ZM76.5443 98.05V92.278H84.2923V90.328H76.5443V84.79H86.5023V82.84H74.4643V100H86.8923V98.05H76.5443ZM104.512 82.84H102.536V94.956L102.64 97.712H102.614L100.768 94.28L93.6183 82.84H91.0443V100H93.0203V87.884L92.9163 85.128H92.9423L94.7623 88.508L101.938 100H104.512V82.84ZM115.676 82.84H110.138V100H115.676C121.058 100 124.308 96.932 124.308 91.42C124.308 85.908 121.058 82.84 115.676 82.84ZM115.884 98.05H112.218V84.79H115.884C119.81 84.79 122.124 87.26 122.124 91.42C122.124 95.58 119.81 98.05 115.884 98.05Z" fill="#F07E15"/>
</svg>
